<svg width="16" height="16" viewBox="0 0 16 16" fill="none" xmlns="http://www.w3.org/2000/svg">
<path d="M2.5569 15.5L0.59023 3.69995H15.4098L13.4431 15.5H2.5569Z" stroke="#141414"/>
<mask id="path-2-inside-1_82_10913" fill="white">
<path d="M4.2666 3.73333C4.2666 1.67147 5.93807 0 7.99993 0V0C10.0618 0 11.7333 1.67147 11.7333 3.73333V6.4H4.2666V3.73333Z"/>
</mask>
<path d="M3.2666 3.73333C3.2666 1.11919 5.38579 -1 7.99993 -1C10.6141 -1 12.7333 1.11919 12.7333 3.73333H10.7333C10.7333 2.22375 9.50951 1 7.99993 1C6.49036 1 5.2666 2.22375 5.2666 3.73333H3.2666ZM11.7333 6.4H4.2666H11.7333ZM3.2666 6.4V3.73333C3.2666 1.11919 5.38579 -1 7.99993 -1V1C6.49036 1 5.2666 2.22375 5.2666 3.73333V6.4H3.2666ZM7.99993 -1C10.6141 -1 12.7333 1.11919 12.7333 3.73333V6.4H10.7333V3.73333C10.7333 2.22375 9.50951 1 7.99993 1V-1Z" fill="#141414" mask="url(#path-2-inside-1_82_10913)"/>
</svg>
